<svg width="219" height="208" viewBox="0 0 219 208" fill="none" xmlns="http://www.w3.org/2000/svg">
<path d="M144.271 89.2583L58.073 146.204C53.7894 149.033 55.7998 155.686 60.9374 155.686H80.2794C84.1556 155.686 86.6522 159.759 84.9046 163.203L66.2591 199.744C63.8414 204.485 69.3075 209.331 73.7488 206.397L159.946 149.452C164.23 146.623 162.22 139.969 157.082 139.969H137.74C133.864 139.969 131.367 135.896 133.115 132.452L151.76 95.9115C154.178 91.1704 148.712 86.3245 144.271 89.2583Z" fill="url(#paint0_linear_1734_2391)"/>
<g filter="url(#filter0_b_1734_2391)">
<path d="M178.623 60.2093H175.602C171.99 26.3612 143.266 0 108.356 0C78.5547 0 53.2848 19.2146 44.2617 45.8769C19.6091 47.1073 0 67.4083 0 92.2774C0 114.987 16.3519 133.874 37.9443 137.932C40.5317 138.468 43.211 138.743 45.9692 138.743H178.623C200.386 138.743 218.025 121.165 218.025 99.4763C218.025 77.7879 200.386 60.2093 178.623 60.2093Z" fill="url(#paint1_linear_1734_2391)"/>
<path d="M174.608 60.3154L174.703 61.2093H175.602H178.623C199.837 61.2093 217.025 78.3434 217.025 99.4763C217.025 120.609 199.837 137.743 178.623 137.743H45.9692C43.2777 137.743 40.6665 137.475 38.1474 136.953L38.1382 136.951L38.129 136.949C16.9976 132.978 1 114.494 1 92.2774C1 67.9472 20.1852 48.0798 44.3116 46.8757L44.9909 46.8418L45.209 46.1975C54.0985 19.9299 78.9954 1 108.356 1C142.752 1 171.05 26.9726 174.608 60.3154Z" stroke="url(#paint2_linear_1734_2391)" stroke-width="2"/>
</g>
<defs>
<filter id="filter0_b_1734_2391" x="-18" y="-18" width="254.025" height="174.743" filterUnits="userSpaceOnUse" color-interpolation-filters="sRGB">
<feFlood flood-opacity="0" result="BackgroundImageFix"/>
<feGaussianBlur in="BackgroundImageFix" stdDeviation="9"/>
<feComposite in2="SourceAlpha" operator="in" result="effect1_backgroundBlur_1734_2391"/>
<feBlend mode="normal" in="SourceGraphic" in2="effect1_backgroundBlur_1734_2391" result="shape"/>
</filter>
<linearGradient id="paint0_linear_1734_2391" x1="77.8485" y1="204.419" x2="146.421" y2="79.0758" gradientUnits="userSpaceOnUse">
<stop stop-color="#A1FFE0" stop-opacity="0.41"/>
<stop offset="1" stop-color="#A1FFE0" stop-opacity="0.86"/>
</linearGradient>
<linearGradient id="paint1_linear_1734_2391" x1="-105.286" y1="83.2503" x2="168.046" y2="-417.557" gradientUnits="userSpaceOnUse">
<stop stop-color="white" stop-opacity="0"/>
<stop offset="0.0332656" stop-color="white" stop-opacity="0.0948842"/>
<stop offset="1" stop-color="white" stop-opacity="0.49"/>
</linearGradient>
<linearGradient id="paint2_linear_1734_2391" x1="15.3901" y1="10.9119" x2="117.559" y2="182.578" gradientUnits="userSpaceOnUse">
<stop stop-color="#8FD7FF" stop-opacity="0.59"/>
<stop offset="1" stop-color="#8FD7FF" stop-opacity="0.54"/>
</linearGradient>
</defs>
</svg>
