<svg width="100" height="100" viewBox="0 0 100 100" fill="none" xmlns="http://www.w3.org/2000/svg">
<g clip-path="url(#clip0_404_1838)">
<path d="M50 100C77.6142 100 100 77.6142 100 50C100 22.3858 77.6142 0 50 0C22.3858 0 0 22.3858 0 50C0 77.6142 22.3858 100 50 100Z" fill="#404061"/>
<path d="M44.3681 36.9581C41.2844 34.3639 36.82 29.6945 35.4853 23.5522C35.1463 21.9957 35.0292 20.4392 35.1296 18.8911C30.4309 22.9246 26.6484 28.5355 26.6484 34.6861C26.6484 38.8032 27.7823 42.661 29.7489 45.9664L44.3681 36.9581Z" fill="#A2FFE0"/>
<path d="M50.0417 35.0627L67.8158 45.9707C69.7823 42.6653 70.9162 38.8075 70.9162 34.6862C70.9162 31.5523 69.866 25.3682 62.8409 19.1339C58.4016 15.1966 52.753 12.5481 48.7823 12.5481C46.6568 12.5481 43.9455 13.3598 41.1589 14.7991C40.0375 17.364 39.7447 19.9372 40.2928 22.4811C41.8869 29.8828 49.9288 34.9874 50.0417 35.0586V35.0627Z" fill="#A2FFE0"/>
<path d="M48.745 40.0461L32.7408 49.9123L32.2178 50.2344V53.929C32.2094 54.6947 32.2554 55.4394 32.3475 56.1591C32.724 59.1047 33.9249 61.6612 35.8872 63.6403C36.3266 64.0838 36.8077 64.4938 37.3182 64.8788C40.1801 67.0294 44.1048 68.201 48.5901 68.201C52.6822 68.201 56.7199 66.883 59.8245 64.6068C60.4897 64.1173 61.1132 63.5901 61.6864 63.0169C63.1215 61.5775 64.7826 59.2888 65.2261 56.1633C65.3014 55.6277 65.3475 55.0671 65.3433 54.4813C65.3433 54.4185 65.3433 53.7407 65.3433 52.8788C65.3433 52.0461 65.3433 51.0378 65.3475 50.2386L64.8245 49.9164L48.745 40.0503V40.0461Z" fill="#A2FFE0"/>
<path d="M86.3267 83.0501C81.2723 70.3053 64.8246 65.4058 64.8246 65.4058C64.8246 65.4058 60.8288 72.5982 49.0548 72.7112C37.2472 72.8284 32.4899 66.3597 32.4899 66.3597C19.4941 70.5104 14.4439 79.9037 12.833 83.912C19.5861 91.0627 28.4272 96.2175 38.3811 98.4099C39.4941 98.6024 40.6154 98.7781 41.7493 98.912C47.879 96.6777 55.7828 92.979 63.6908 86.9706C59.8288 84.8911 54.0882 83.0585 46.5066 83.9832C33.6196 85.5564 25.9502 88.6066 25.8748 88.6359L24.2682 84.6694C24.5987 84.5355 32.4857 81.3807 45.9878 79.7321C63.3225 77.615 72.4732 88.2133 72.8539 88.6652L69.5861 91.4309C69.4941 91.3221 68.7828 90.5104 67.4648 89.4518C62.0799 93.7028 56.6991 96.9079 51.7828 99.3179C53.9836 99.2384 56.1594 99.0459 58.2974 98.7489C69.3393 96.7154 79.1092 91.0543 86.3309 83.0501H86.3267Z" fill="#A2FFE0"/>
</g>
<defs>
<clipPath id="clip0_404_1838">
<rect width="100" height="100" fill="white"/>
</clipPath>
</defs>
</svg>
