<svg width="28" height="26" viewBox="0 0 28 26" fill="none" xmlns="http://www.w3.org/2000/svg">
<path fill-rule="evenodd" clip-rule="evenodd" d="M14.004 0.24707C6.7834 0.24707 0.927734 6.1012 0.927734 13.3234C0.927734 19.1007 4.67436 24.0023 9.87014 25.7312C10.5236 25.8523 10.7636 25.4475 10.7636 25.102C10.7636 24.7904 10.7513 23.7601 10.7458 22.6678C7.10766 23.4586 6.3402 21.1249 6.3402 21.1249C5.74548 19.6133 4.88827 19.2113 4.88827 19.2113C3.70189 18.3999 4.9774 18.4165 4.9774 18.4165C6.29072 18.5087 6.98226 19.7642 6.98226 19.7642C8.14836 21.7632 10.0413 21.1851 10.7873 20.851C10.905 20.0058 11.2437 19.4286 11.6177 19.1022C8.71327 18.7718 5.66003 17.6503 5.66003 12.6398C5.66003 11.2122 6.17085 10.0458 7.00746 9.12985C6.87161 8.80037 6.42411 7.47015 7.13409 5.66907C7.13409 5.66907 8.23195 5.31807 10.7301 7.01004C11.7736 6.72021 12.8923 6.57483 14.0034 6.56992C15.1148 6.57514 16.2342 6.72052 17.2792 7.01004C19.7749 5.31838 20.8715 5.66937 20.8715 5.66937C21.5833 7.47046 21.1358 8.80037 21 9.13016C21.8384 10.0455 22.3456 11.2122 22.3456 12.6401C22.3456 17.6622 19.2865 18.7681 16.3746 19.0914C16.8436 19.4971 17.2616 20.2932 17.2616 21.5134C17.2616 23.2628 17.2469 24.6708 17.2469 25.1014C17.2469 25.4487 17.4823 25.8569 18.145 25.7284C23.338 23.9974 27.0797 19.0976 27.0797 13.3221C27.0803 6.10151 21.2259 0.24707 14.004 0.24707Z" fill="white"/>
</svg>
