<svg width="111" height="38" viewBox="0 0 111 38" fill="none" xmlns="http://www.w3.org/2000/svg">
<path d="M11.7266 29.0195V18.4805L5.64062 13.8047V26.793C5.64062 28.2773 6.38281 29.0195 7.86719 29.0195" fill="#4285F4"/>
<path d="M11.4297 18.4062L19 24.1211L26.5703 18.4062V11.1328L19 16.8477L11.4297 11.1328" fill="#EA4335"/>
<path d="M26.2734 29.0195V18.4805L32.3594 13.8047V26.793C32.3594 28.2773 31.6172 29.0195 30.1328 29.0195" fill="#34A853"/>
<path d="M5.64062 13.953L11.7266 18.6288V11.3553L9.5 9.64831C7.49609 8.08972 5.64062 9.64831 5.64062 11.578" fill="#C5221F"/>
<path d="M32.3594 13.953L26.2734 18.6288V11.3553L28.5 9.64831C30.5039 8.08972 32.3594 9.64831 32.3594 11.578" fill="#FBBC04"/>
<path d="M62.0717 19.3136C62.0717 22.1208 61.2492 24.3578 59.6047 26.0238C57.7561 28.0081 55.3256 29 52.3132 29C49.4299 29 46.9904 27.9891 44.9943 25.9678C42.9982 23.9464 42 21.4572 42 18.5C42 15.5428 42.9982 13.0536 44.9943 11.0322C46.9904 9.01086 49.4299 8 52.3132 8C53.773 8 55.1503 8.26205 56.4442 8.78581C57.738 9.30957 58.8006 10.0492 59.6285 11.0037L57.799 12.8571C57.189 12.1086 56.3989 11.5231 55.4285 11.1022C54.4581 10.6813 53.4187 10.4708 52.3096 10.4708C50.1476 10.4708 48.3207 11.2284 46.8204 12.7451C45.3415 14.2794 44.6024 16.1982 44.6024 18.5003C44.6024 20.8024 45.3415 22.7217 46.8204 24.2559C48.3174 25.7719 50.1472 26.5302 52.3096 26.5302C54.2872 26.5302 55.932 25.9688 57.2446 24.8456C58.5572 23.7223 59.3144 22.1785 59.5179 20.2135H52.3096V17.7991H61.9296C62.0199 18.2992 62.0663 18.8065 62.0684 19.315L62.0717 19.3136ZM67.2807 28.5472H64.7332V14.794H67.1727V16.703H67.2833C67.6715 16.0292 68.2675 15.4674 69.0716 15.0183C69.8757 14.5692 70.6745 14.3449 71.4696 14.3449C72.4678 14.3449 73.3453 14.5825 74.1032 15.0465C74.8462 15.4975 75.4286 16.1759 75.7664 16.9837C76.8937 15.2244 78.4557 14.3449 80.4524 14.3449C82.0232 14.3449 83.2339 14.8316 84.0843 15.8045C84.9347 16.7773 85.3597 18.1626 85.3597 19.9593V28.5472H82.8122V20.353C82.8122 19.0614 82.5776 18.1307 82.119 17.5594C81.6605 16.9881 80.8808 16.7033 79.7904 16.7033C78.8107 16.7033 77.9884 17.1242 77.3234 17.9667C76.6584 18.8092 76.3252 19.8011 76.3252 20.943V28.5472H73.7777V20.353C73.7777 19.0614 73.5431 18.1307 73.0849 17.5594C72.6267 16.9881 71.8467 16.7033 70.7563 16.7033C69.7762 16.7033 68.9539 17.1242 68.2893 17.9667C67.6246 18.8092 67.291 19.8011 67.291 20.943V28.5472H67.2807ZM93.3681 14.3449C95.2533 14.3449 96.7412 14.8551 97.8316 15.8747C98.922 16.8944 99.4673 18.2943 99.4673 20.072V28.5472H97.0278V26.6382H96.9172C95.8636 28.2105 94.4589 28.9963 92.7031 28.9963C91.2061 28.9963 89.9538 28.5472 88.9466 27.6487C87.9393 26.7502 87.4355 25.6273 87.4355 24.2794C87.4355 22.8537 87.9668 21.7247 89.0297 20.8822C90.0926 20.0397 91.5112 19.6188 93.2853 19.6188C94.8004 19.6188 96.048 19.8995 97.0281 20.4606V19.871C97.0281 18.9728 96.6768 18.2101 95.9743 17.5832C95.2717 16.9562 94.4491 16.6429 93.5072 16.6429C92.0837 16.6429 90.9598 17.2515 90.1218 18.4681L87.876 17.0356C89.1138 15.239 90.9437 14.3405 93.3651 14.3405L93.3681 14.3449ZM90.0688 24.3394C90.0688 25.0129 90.3504 25.575 90.9145 26.0238C91.4786 26.4725 92.138 26.6976 92.8965 26.6976C93.9681 26.6976 94.9244 26.2953 95.7658 25.4902C96.6071 24.685 97.0274 23.7403 97.0274 22.6544C96.2324 22.0183 95.1235 21.6999 93.7003 21.6999C92.6652 21.6999 91.8014 21.9525 91.1082 22.4576C90.4151 22.9627 90.0685 23.5903 90.0685 24.3388L90.0688 24.3394ZM105.65 10.0489C105.654 10.2892 105.61 10.5278 105.519 10.75C105.428 10.9721 105.294 11.1731 105.123 11.3405C104.772 11.6962 104.347 11.8734 103.848 11.8734C103.349 11.8734 102.924 11.6959 102.573 11.3405C102.222 10.9851 102.046 10.5547 102.046 10.0489C102.042 9.80858 102.087 9.56999 102.177 9.34784C102.268 9.12569 102.403 8.92471 102.573 8.7573C102.738 8.58486 102.937 8.44857 103.156 8.35685C103.375 8.26513 103.611 8.21993 103.848 8.22403C104.086 8.21993 104.321 8.26513 104.541 8.35685C104.76 8.44857 104.958 8.58486 105.124 8.7573C105.475 9.11371 105.651 9.54345 105.651 10.0489H105.65ZM105.123 14.7943V28.5472H102.576V14.794L105.123 14.7943ZM111 8.45214V28.5472H108.453V8.45214H111Z" fill="#787879"/>
</svg>
