<svg width="39" height="38" viewBox="0 0 39 38" fill="none" xmlns="http://www.w3.org/2000/svg">
<path d="M12.2305 29.0195V18.4805L6.14453 13.8047V26.793C6.14453 28.2773 6.88672 29.0195 8.37109 29.0195" fill="#4285F4"/>
<path d="M11.9336 18.4062L19.5039 24.1211L27.0742 18.4062V11.1328L19.5039 16.8477L11.9336 11.1328" fill="#EA4335"/>
<path d="M26.7773 29.0195V18.4805L32.8633 13.8047V26.793C32.8633 28.2773 32.1211 29.0195 30.6367 29.0195" fill="#34A853"/>
<path d="M6.14453 13.9532L12.2305 18.629V11.3556L10.0039 9.64856C8 8.08996 6.14453 9.64856 6.14453 11.5782" fill="#C5221F"/>
<path d="M32.8633 13.9532L26.7773 18.629V11.3556L29.0039 9.64856C31.0078 8.08996 32.8633 9.64856 32.8633 11.5782" fill="#FBBC04"/>
</svg>
