<svg width="40" height="40" viewBox="0 0 40 40" fill="none" xmlns="http://www.w3.org/2000/svg">
<circle cx="20" cy="20" r="20" fill="url(#paint0_linear_1469_4461)"/>
<path d="M27.5 13.6321V22.549C27.5 22.7226 27.4141 22.8859 27.2719 22.9778C24.9879 24.3256 22.1551 24.1962 19.9967 22.6477C17.2433 20.7928 14.394 21.5586 13.4916 21.8785V27.991C13.4916 28.2735 13.2702 28.5015 12.9958 28.5015C12.7215 28.5015 12.5 28.2735 12.5 27.991V12.6076C12.5 12.4068 12.6157 12.2265 12.7942 12.1448C12.9528 12.0699 16.7805 10.341 20.5388 12.8765C22.3733 14.2038 24.7829 14.3298 26.7364 13.1998C26.9711 13.0501 27.2785 13.125 27.424 13.3632C27.4736 13.4449 27.5 13.5368 27.5 13.6321Z" fill="#101018"/>
<path d="M27.5 13.6321V22.549C27.5 22.7226 27.4141 22.8859 27.2719 22.9778C24.9879 24.3256 22.1551 24.1962 19.9967 22.6477C17.2433 20.7928 14.394 21.5586 13.4916 21.8785V27.991C13.4916 28.2735 13.2702 28.5015 12.9958 28.5015C12.7215 28.5015 12.5 28.2735 12.5 27.991V12.6076C12.5 12.4068 12.6157 12.2265 12.7942 12.1448C12.9528 12.0699 16.7805 10.341 20.5388 12.8765C22.3733 14.2038 24.7829 14.3298 26.7364 13.1998C26.9711 13.0501 27.2785 13.125 27.424 13.3632C27.4736 13.4449 27.5 13.5368 27.5 13.6321Z" fill="#A688FF" fill-opacity="0.05"/>
<path d="M27.5 13.6321V22.549C27.5 22.7226 27.4141 22.8859 27.2719 22.9778C24.9879 24.3256 22.1551 24.1962 19.9967 22.6477C17.2433 20.7928 14.394 21.5586 13.4916 21.8785V27.991C13.4916 28.2735 13.2702 28.5015 12.9958 28.5015C12.7215 28.5015 12.5 28.2735 12.5 27.991V12.6076C12.5 12.4068 12.6157 12.2265 12.7942 12.1448C12.9528 12.0699 16.7805 10.341 20.5388 12.8765C22.3733 14.2038 24.7829 14.3298 26.7364 13.1998C26.9711 13.0501 27.2785 13.125 27.424 13.3632C27.4736 13.4449 27.5 13.5368 27.5 13.6321Z" fill="#5ED9FF" fill-opacity="0.02"/>
<defs>
<linearGradient id="paint0_linear_1469_4461" x1="0" y1="20" x2="40" y2="20" gradientUnits="userSpaceOnUse">
<stop stop-color="#8ABFE6"/>
<stop offset="1" stop-color="#B1EAF1"/>
</linearGradient>
</defs>
</svg>
