<svg width="131" height="131" viewBox="0 0 131 131" fill="none" xmlns="http://www.w3.org/2000/svg">
<path d="M65.5 131C101.675 131 131 101.675 131 65.5C131 29.3253 101.675 0 65.5 0C29.3253 0 0 29.3253 0 65.5C0 101.675 29.3253 131 65.5 131Z" fill="url(#paint0_linear_830_3492)"/>
<path d="M67.5762 38.7147C63.9528 35.8717 59.7162 34.2551 55.2008 34.2551C41.7106 34.2551 30.7847 48.7766 30.7847 66.6985C30.7847 84.6205 41.7106 99.1419 55.2008 99.1419C59.2981 99.1419 63.1445 97.8041 66.517 95.4349C57.6815 90.1113 51.6611 79.5477 51.6611 67.3675C51.6611 55.1873 58.1553 43.8153 67.5483 38.7147H67.5762Z" fill="#101018"/>
<path d="M93.47 46.1845H111.587C103.811 29.4611 86.8643 17.8383 67.1864 17.8383C66.8798 17.8383 66.5732 17.8383 66.2945 17.8383C66.0715 17.8941 65.8206 17.9219 65.5977 17.9777C78.0845 22.5209 88.23 32.8894 93.47 46.1566V46.1845Z" fill="#101018"/>
<path d="M116.129 66.8101C116.129 66.1969 116.129 65.5837 116.073 64.9705H75.9927V82.0284H95.2804C90.8487 97.9435 79.6719 110.57 65.4849 115.698C66.0423 115.698 66.5998 115.754 67.1572 115.754C94.1934 115.754 116.101 93.8463 116.101 66.8101H116.129Z" fill="#101018"/>
<defs>
<linearGradient id="paint0_linear_830_3492" x1="0" y1="65.5" x2="131" y2="65.5" gradientUnits="userSpaceOnUse">
<stop stop-color="#A1FFE0"/>
<stop offset="0.03" stop-color="#96F6DD"/>
<stop offset="0.14" stop-color="#75DAD4"/>
<stop offset="0.27" stop-color="#5AC4CC"/>
<stop offset="0.4" stop-color="#46B2C7"/>
<stop offset="0.55" stop-color="#37A6C3"/>
<stop offset="0.72" stop-color="#2E9FC0"/>
<stop offset="1" stop-color="#2C9DC0"/>
</linearGradient>
</defs>
</svg>
