<svg width="25" height="25" viewBox="0 0 25 25" fill="none" xmlns="http://www.w3.org/2000/svg">
<mask id="mask0_217_662" style="mask-type:luminance" maskUnits="userSpaceOnUse" x="0" y="0" width="25" height="25">
<path d="M25 0H0V25H25V0Z" fill="white"/>
</mask>
<g mask="url(#mask0_217_662)">
<path d="M2.44691 10.9629C2.34537 10.584 2.34536 10.1851 2.44687 9.80628C2.54838 9.42744 2.74783 9.08198 3.02518 8.80465L8.80452 3.02531C9.08184 2.74796 9.4273 2.54851 9.80615 2.447C10.185 2.34549 10.5839 2.3455 10.9627 2.44704L16.3708 3.89611C16.427 3.15524 16.685 2.44387 17.1167 1.83907L10.6031 0.0939428C10.1356 -0.0313169 9.6433 -0.0313144 9.17579 0.0939511C8.70826 0.219217 8.28195 0.465333 7.93969 0.807563L0.807561 7.93968C0.46533 8.28196 0.219216 8.70826 0.0939511 9.17578C-0.0313143 9.6433 -0.031317 10.1356 0.0939428 10.6031L1.9062 17.3665C2.49863 16.914 3.20397 16.633 3.94521 16.5542L2.44691 10.9629Z" fill="#18CDCA"/>
<path d="M21.005 8.25878L22.5533 14.037C22.6549 14.4159 22.6548 14.8148 22.5533 15.1936C22.4518 15.5725 22.2523 15.9179 21.9749 16.1953L16.1956 21.9747C15.9183 22.2521 15.5728 22.4514 15.1939 22.553C14.8151 22.6544 14.4162 22.6544 14.0374 22.553L8.446 21.0547C8.36722 21.796 8.08626 22.5013 7.63379 23.0937L14.3972 24.906C14.8646 25.0313 15.3569 25.0313 15.8244 24.906C16.292 24.7807 16.7183 24.5346 17.0606 24.1923L24.1927 17.0602C24.535 16.7179 24.781 16.2917 24.9063 15.8241C25.0316 15.3566 25.0316 14.8643 24.9063 14.3968L23.0257 7.38025C22.4458 7.85357 21.7466 8.15758 21.005 8.25878Z" fill="#18CDCA"/>
<path d="M2.06867 18.2992C1.61062 18.7571 1.29869 19.3408 1.17231 19.9761C1.04593 20.6114 1.11079 21.27 1.35869 21.8685C1.60657 22.4668 2.02636 22.9784 2.56495 23.3383C3.10355 23.6981 3.73677 23.8903 4.38454 23.8903C5.03231 23.8903 5.66553 23.6981 6.20412 23.3383C6.74273 22.9784 7.16252 22.4668 7.4104 21.8685C7.65829 21.27 7.72315 20.6114 7.59676 19.9761C7.4704 19.3408 7.15846 18.7571 6.70041 18.2992C6.08573 17.6859 5.25286 17.3414 4.38454 17.3414C3.51622 17.3414 2.68336 17.6859 2.06867 18.2992Z" fill="#4F80E1"/>
<path d="M18.1292 1.89988C17.6712 2.35791 17.3591 2.94149 17.2329 3.57682C17.1065 4.21213 17.1713 4.87066 17.4192 5.46913C17.6671 6.06758 18.0869 6.5791 18.6254 6.93898C19.1641 7.29886 19.7973 7.49095 20.445 7.49095C21.0928 7.49095 21.726 7.29886 22.2647 6.93898C22.8032 6.5791 23.223 6.06758 23.4709 5.46913C23.7188 4.87066 23.7836 4.21213 23.6572 3.57682C23.531 2.94149 23.2189 2.35791 22.7609 1.89988C22.1463 1.28657 21.3133 0.942139 20.445 0.942139C19.5768 0.942139 18.7438 1.28657 18.1292 1.89988Z" fill="#4F80E1"/>
<path d="M14.4221 21.1816C14.2906 21.1816 14.1597 21.1644 14.0326 21.1304L8.91445 19.7589C8.74379 18.8475 8.30165 18.009 7.64603 17.3534C6.9904 16.6978 6.15192 16.2556 5.24057 16.085L3.8692 10.9672C3.80122 10.7119 3.80141 10.4433 3.86979 10.1881C3.93817 9.93292 4.07232 9.70018 4.25883 9.51309L9.51211 4.25968C9.69898 4.0728 9.93174 3.93841 10.187 3.87001C10.4423 3.80162 10.7111 3.80163 10.9663 3.87005L15.9411 5.20303C16.1384 6.10874 16.6046 6.93373 17.2788 7.56995C17.9529 8.20616 18.8035 8.62394 19.7191 8.76855L21.1295 14.0335C21.1975 14.2889 21.1973 14.5575 21.1288 14.8126C21.0605 15.0679 20.9264 15.3006 20.7397 15.4877L15.4865 20.741C15.3471 20.8811 15.1811 20.9923 14.9984 21.0678C14.8157 21.1435 14.6199 21.1822 14.4221 21.1816Z" fill="#4F80E1"/>
</g>
</svg>
