<svg width="427" height="236" viewBox="0 0 427 236" fill="none" xmlns="http://www.w3.org/2000/svg">
<g clip-path="url(#clip0_602_3316)">
<path d="M332.974 13.4648H9.27891C4.15431 13.4648 0 17.6296 0 22.7672V225.768C0 230.905 4.15431 235.07 9.27891 235.07H332.974C338.098 235.07 342.253 230.905 342.253 225.768V22.7672C342.253 17.6296 338.098 13.4648 332.974 13.4648Z" fill="#DAD9E6"/>
<path d="M342.867 1.16211H19.1725C14.0479 1.16211 9.89355 5.32691 9.89355 10.4645V214.395C9.89355 219.533 14.0479 223.698 19.1725 223.698H342.867C347.992 223.698 352.146 219.533 352.146 214.395V10.4645C352.146 5.32691 347.992 1.16211 342.867 1.16211Z" fill="#1D1D29"/>
<path d="M342.867 1.16211H19.1725C14.0479 1.16211 9.89355 5.32691 9.89355 10.4645V214.395C9.89355 219.533 14.0479 223.698 19.1725 223.698H342.867C347.992 223.698 352.146 219.533 352.146 214.395V10.4645C352.146 5.32691 347.992 1.16211 342.867 1.16211Z" stroke="#101018" stroke-width="2" stroke-miterlimit="10"/>
<path d="M342.867 1.16211H19.1725C14.0479 1.16211 9.89355 5.32691 9.89355 10.4645V214.395C9.89355 219.533 14.0479 223.698 19.1725 223.698H342.867C347.992 223.698 352.146 219.533 352.146 214.395V10.4645C352.146 5.32691 347.992 1.16211 342.867 1.16211Z" stroke="#A688FF" stroke-opacity="0.15" stroke-width="2" stroke-miterlimit="10"/>
<path d="M342.867 1.16211H19.1725C14.0479 1.16211 9.89355 5.32691 9.89355 10.4645V214.395C9.89355 219.533 14.0479 223.698 19.1725 223.698H342.867C347.992 223.698 352.146 219.533 352.146 214.395V10.4645C352.146 5.32691 347.992 1.16211 342.867 1.16211Z" stroke="#5ED9FF" stroke-opacity="0.05" stroke-width="2" stroke-miterlimit="10"/>
<path d="M85.5051 114.768C87.7436 114.768 87.7436 111.279 85.5051 111.279C83.2665 111.279 83.2665 114.768 85.5051 114.768Z" fill="#A688FF"/>
<path d="M32.9867 21.558C35.8309 21.558 38.1365 19.2466 38.1365 16.3952C38.1365 13.5439 35.8309 11.2324 32.9867 11.2324C30.1426 11.2324 27.8369 13.5439 27.8369 16.3952C27.8369 19.2466 30.1426 21.558 32.9867 21.558Z" fill="#A284FF"/>
<path d="M52.3793 21.558C55.2234 21.558 57.5291 19.2466 57.5291 16.3952C57.5291 13.5439 55.2234 11.2324 52.3793 11.2324C49.5351 11.2324 47.2295 13.5439 47.2295 16.3952C47.2295 19.2466 49.5351 21.558 52.3793 21.558Z" fill="#A284FF"/>
<path d="M71.7611 21.558C74.6053 21.558 76.9109 19.2466 76.9109 16.3952C76.9109 13.5439 74.6053 11.2324 71.7611 11.2324C68.917 11.2324 66.6113 13.5439 66.6113 16.3952C66.6113 19.2466 68.917 21.558 71.7611 21.558Z" fill="#A284FF"/>
<path d="M9.89355 34.373H352.146" stroke="#A688FF" stroke-miterlimit="10"/>
<path d="M10.2646 31.627H352.434V214.632C352.434 219.784 348.266 223.957 343.121 223.957H19.5776C14.4322 223.957 10.2646 219.784 10.2646 214.632V31.627Z" fill="url(#paint0_linear_602_3316)" stroke="#1D1D29" stroke-width="2" stroke-miterlimit="10"/>
<path d="M183.027 99.6992H297.715" stroke="#1D1D29" stroke-width="4" stroke-miterlimit="10" stroke-linecap="round"/>
<path d="M182.888 130.014H256.006" stroke="#1D1D29" stroke-width="4" stroke-miterlimit="10" stroke-linecap="round"/>
<path d="M272.093 130.014H297.714" stroke="#1D1D29" stroke-width="4" stroke-miterlimit="10" stroke-linecap="round"/>
<path d="M183.027 157.246H297.715" stroke="#1D1D29" stroke-width="4" stroke-miterlimit="10" stroke-linecap="round"/>
<path d="M86.6075 107.896L65.6371 127.745C65.1848 128.176 65.1848 128.897 65.6371 129.327L86.6075 148.78" stroke="#1D1D29" stroke-width="4" stroke-miterlimit="10" stroke-linecap="round"/>
<path d="M101.303 159.222L112.785 96.3848" stroke="#1D1D29" stroke-width="4" stroke-miterlimit="10" stroke-linecap="round"/>
<path d="M127.945 107.896L148.916 127.745C149.368 128.176 149.368 128.897 148.916 129.327L127.945 148.78" stroke="#1D1D29" stroke-width="4" stroke-miterlimit="10" stroke-linecap="round"/>
</g>
<path d="M420.061 131.532C420.061 168.032 390.706 197.615 354.504 197.615C318.302 197.615 288.947 168.032 288.947 131.532C288.947 95.0318 318.302 65.4492 354.504 65.4492C390.706 65.4492 420.061 95.0318 420.061 131.532Z" fill="#A688FF"/>
<path d="M420.061 131.532C420.061 168.032 390.706 197.615 354.504 197.615C318.302 197.615 288.947 168.032 288.947 131.532C288.947 95.0318 318.302 65.4492 354.504 65.4492C390.706 65.4492 420.061 95.0318 420.061 131.532Z" stroke="#101018"/>
<path d="M420.061 131.532C420.061 168.032 390.706 197.615 354.504 197.615C318.302 197.615 288.947 168.032 288.947 131.532C288.947 95.0318 318.302 65.4492 354.504 65.4492C390.706 65.4492 420.061 95.0318 420.061 131.532Z" stroke="#A688FF" stroke-opacity="0.15"/>
<path d="M420.061 131.532C420.061 168.032 390.706 197.615 354.504 197.615C318.302 197.615 288.947 168.032 288.947 131.532C288.947 95.0318 318.302 65.4492 354.504 65.4492C390.706 65.4492 420.061 95.0318 420.061 131.532Z" stroke="#5ED9FF" stroke-opacity="0.05"/>
<path d="M359.942 194.756C396.425 194.756 425.999 164.945 425.999 128.173C425.999 91.4 396.425 61.5898 359.942 61.5898C323.46 61.5898 293.886 91.4 293.886 128.173C293.886 164.945 323.46 194.756 359.942 194.756Z" fill="#1D1D29"/>
<path d="M359.942 194.756C396.425 194.756 425.999 164.945 425.999 128.173C425.999 91.4 396.425 61.5898 359.942 61.5898C323.46 61.5898 293.886 91.4 293.886 128.173C293.886 164.945 323.46 194.756 359.942 194.756Z" stroke="#101018" stroke-miterlimit="10"/>
<path d="M359.942 194.756C396.425 194.756 425.999 164.945 425.999 128.173C425.999 91.4 396.425 61.5898 359.942 61.5898C323.46 61.5898 293.886 91.4 293.886 128.173C293.886 164.945 323.46 194.756 359.942 194.756Z" stroke="#A688FF" stroke-opacity="0.15" stroke-miterlimit="10"/>
<path d="M359.942 194.756C396.425 194.756 425.999 164.945 425.999 128.173C425.999 91.4 396.425 61.5898 359.942 61.5898C323.46 61.5898 293.886 91.4 293.886 128.173C293.886 164.945 323.46 194.756 359.942 194.756Z" stroke="#5ED9FF" stroke-opacity="0.05" stroke-miterlimit="10"/>
<path d="M364.494 146.21L360.681 136.791H343.056L339.243 146.21H329.898L347.769 103.889H356.225L374.084 146.21H364.494ZM351.874 114.994L346.331 128.621H357.406L351.863 114.994H351.874Z" fill="#A2FFE0"/>
<path d="M380.938 146.21V104.195H390.108V146.21H380.938Z" fill="#A2FFE0"/>
<defs>
<linearGradient id="paint0_linear_602_3316" x1="-0.745752" y1="98.2028" x2="372.761" y2="98.2028" gradientUnits="userSpaceOnUse">
<stop stop-color="#A2FFE0"/>
<stop offset="1" stop-color="#2C9DC0"/>
</linearGradient>
<clipPath id="clip0_602_3316">
<rect width="420.868" height="235.07" fill="white"/>
</clipPath>
</defs>
</svg>
