<svg width="223" height="198" viewBox="0 0 223 198" fill="none" xmlns="http://www.w3.org/2000/svg">
<g filter="url(#filter0_d_1611_4689)">
<rect x="30" y="140" width="162.75" height="19.25" rx="9.625" fill="white"/>
</g>
<g filter="url(#filter1_iii_1611_4689)">
<path d="M195.666 24.5H169.767C166.493 24.5 163.419 23.224 161.102 20.9111L146.172 5.98143C142.316 2.12537 137.188 0 131.733 0H96.2668C90.8118 0 85.6836 2.12537 81.8275 5.98143L66.8979 20.9111C64.5811 23.224 61.5067 24.5 58.2329 24.5H32.3334C23.3251 24.5 16 31.8251 16 40.833V146.999C16 156.007 23.3251 163.333 32.3334 163.333H195.667C204.675 163.333 212 156.008 212 146.999V40.833C212 31.8251 204.675 24.5 195.666 24.5Z" fill="url(#paint0_linear_1611_4689)"/>
<path d="M195.666 24.5H169.767C166.493 24.5 163.419 23.224 161.102 20.9111L146.172 5.98143C142.316 2.12537 137.188 0 131.733 0H96.2668C90.8118 0 85.6836 2.12537 81.8275 5.98143L66.8979 20.9111C64.5811 23.224 61.5067 24.5 58.2329 24.5H32.3334C23.3251 24.5 16 31.8251 16 40.833V146.999C16 156.007 23.3251 163.333 32.3334 163.333H195.667C204.675 163.333 212 156.008 212 146.999V40.833C212 31.8251 204.675 24.5 195.666 24.5Z" fill="url(#paint1_linear_1611_4689)"/>
<path d="M195.666 24.5H169.767C166.493 24.5 163.419 23.224 161.102 20.9111L146.172 5.98143C142.316 2.12537 137.188 0 131.733 0H96.2668C90.8118 0 85.6836 2.12537 81.8275 5.98143L66.8979 20.9111C64.5811 23.224 61.5067 24.5 58.2329 24.5H32.3334C23.3251 24.5 16 31.8251 16 40.833V146.999C16 156.007 23.3251 163.333 32.3334 163.333H195.667C204.675 163.333 212 156.008 212 146.999V40.833C212 31.8251 204.675 24.5 195.666 24.5Z" fill="url(#paint2_linear_1611_4689)"/>
<path d="M195.666 24.5H169.767C166.493 24.5 163.419 23.224 161.102 20.9111L146.172 5.98143C142.316 2.12537 137.188 0 131.733 0H96.2668C90.8118 0 85.6836 2.12537 81.8275 5.98143L66.8979 20.9111C64.5811 23.224 61.5067 24.5 58.2329 24.5H32.3334C23.3251 24.5 16 31.8251 16 40.833V146.999C16 156.007 23.3251 163.333 32.3334 163.333H195.667C204.675 163.333 212 156.008 212 146.999V40.833C212 31.8251 204.675 24.5 195.666 24.5Z" fill="url(#paint3_radial_1611_4689)"/>
</g>
<path d="M113.125 138.25C139.704 138.25 161.25 116.704 161.25 90.125C161.25 63.5463 139.704 42 113.125 42C86.5463 42 65 63.5463 65 90.125C65 116.704 86.5463 138.25 113.125 138.25Z" fill="#FDB6E5"/>
<g filter="url(#filter2_ii_1611_4689)">
<path d="M113.125 138.25C139.704 138.25 161.25 116.704 161.25 90.125C161.25 63.5463 139.704 42 113.125 42C86.5463 42 65 63.5463 65 90.125C65 116.704 86.5463 138.25 113.125 138.25Z" fill="white" fill-opacity="0.02"/>
</g>
<rect x="65" y="42" width="96.25" height="96.25" rx="48.125" fill="url(#paint4_radial_1611_4689)"/>
<circle cx="178.75" cy="57.75" r="8.75" fill="white"/>
<defs>
<filter id="filter0_d_1611_4689" x="0" y="118" width="222.75" height="79.25" filterUnits="userSpaceOnUse" color-interpolation-filters="sRGB">
<feFlood flood-opacity="0" result="BackgroundImageFix"/>
<feColorMatrix in="SourceAlpha" type="matrix" values="0 0 0 0 0 0 0 0 0 0 0 0 0 0 0 0 0 0 127 0" result="hardAlpha"/>
<feOffset dy="8"/>
<feGaussianBlur stdDeviation="15"/>
<feComposite in2="hardAlpha" operator="out"/>
<feColorMatrix type="matrix" values="0 0 0 0 0.113073 0 0 0 0 0.186625 0 0 0 0 0.695833 0 0 0 1 0"/>
<feBlend mode="normal" in2="BackgroundImageFix" result="effect1_dropShadow_1611_4689"/>
<feBlend mode="normal" in="SourceGraphic" in2="effect1_dropShadow_1611_4689" result="shape"/>
</filter>
<filter id="filter1_iii_1611_4689" x="16" y="-10" width="197" height="177.332" filterUnits="userSpaceOnUse" color-interpolation-filters="sRGB">
<feFlood flood-opacity="0" result="BackgroundImageFix"/>
<feBlend mode="normal" in="SourceGraphic" in2="BackgroundImageFix" result="shape"/>
<feColorMatrix in="SourceAlpha" type="matrix" values="0 0 0 0 0 0 0 0 0 0 0 0 0 0 0 0 0 0 127 0" result="hardAlpha"/>
<feOffset dy="4"/>
<feGaussianBlur stdDeviation="9.5"/>
<feComposite in2="hardAlpha" operator="arithmetic" k2="-1" k3="1"/>
<feColorMatrix type="matrix" values="0 0 0 0 1 0 0 0 0 1 0 0 0 0 1 0 0 0 0.56 0"/>
<feBlend mode="normal" in2="shape" result="effect1_innerShadow_1611_4689"/>
<feColorMatrix in="SourceAlpha" type="matrix" values="0 0 0 0 0 0 0 0 0 0 0 0 0 0 0 0 0 0 127 0" result="hardAlpha"/>
<feOffset dy="-10"/>
<feGaussianBlur stdDeviation="12.5"/>
<feComposite in2="hardAlpha" operator="arithmetic" k2="-1" k3="1"/>
<feColorMatrix type="matrix" values="0 0 0 0 1 0 0 0 0 1 0 0 0 0 1 0 0 0 0.42 0"/>
<feBlend mode="normal" in2="effect1_innerShadow_1611_4689" result="effect2_innerShadow_1611_4689"/>
<feColorMatrix in="SourceAlpha" type="matrix" values="0 0 0 0 0 0 0 0 0 0 0 0 0 0 0 0 0 0 127 0" result="hardAlpha"/>
<feOffset dx="1" dy="1"/>
<feGaussianBlur stdDeviation="2"/>
<feComposite in2="hardAlpha" operator="arithmetic" k2="-1" k3="1"/>
<feColorMatrix type="matrix" values="0 0 0 0 1 0 0 0 0 1 0 0 0 0 1 0 0 0 0.9 0"/>
<feBlend mode="normal" in2="effect2_innerShadow_1611_4689" result="effect3_innerShadow_1611_4689"/>
</filter>
<filter id="filter2_ii_1611_4689" x="65" y="38" width="96.25" height="104.25" filterUnits="userSpaceOnUse" color-interpolation-filters="sRGB">
<feFlood flood-opacity="0" result="BackgroundImageFix"/>
<feBlend mode="normal" in="SourceGraphic" in2="BackgroundImageFix" result="shape"/>
<feColorMatrix in="SourceAlpha" type="matrix" values="0 0 0 0 0 0 0 0 0 0 0 0 0 0 0 0 0 0 127 0" result="hardAlpha"/>
<feOffset dy="-4"/>
<feGaussianBlur stdDeviation="7"/>
<feComposite in2="hardAlpha" operator="arithmetic" k2="-1" k3="1"/>
<feColorMatrix type="matrix" values="0 0 0 0 1 0 0 0 0 1 0 0 0 0 1 0 0 0 1 0"/>
<feBlend mode="normal" in2="shape" result="effect1_innerShadow_1611_4689"/>
<feColorMatrix in="SourceAlpha" type="matrix" values="0 0 0 0 0 0 0 0 0 0 0 0 0 0 0 0 0 0 127 0" result="hardAlpha"/>
<feOffset dy="4"/>
<feGaussianBlur stdDeviation="7"/>
<feComposite in2="hardAlpha" operator="arithmetic" k2="-1" k3="1"/>
<feColorMatrix type="matrix" values="0 0 0 0 1 0 0 0 0 1 0 0 0 0 1 0 0 0 1 0"/>
<feBlend mode="normal" in2="effect1_innerShadow_1611_4689" result="effect2_innerShadow_1611_4689"/>
</filter>
<linearGradient id="paint0_linear_1611_4689" x1="254" y1="-35" x2="30" y2="162.75" gradientUnits="userSpaceOnUse">
<stop stop-color="#9B87FB"/>
<stop offset="1" stop-color="white"/>
</linearGradient>
<linearGradient id="paint1_linear_1611_4689" x1="212" y1="162.75" x2="114" y2="-54.25" gradientUnits="userSpaceOnUse">
<stop stop-color="#FD91E4"/>
<stop offset="1" stop-color="#9B87FB" stop-opacity="0"/>
</linearGradient>
<linearGradient id="paint2_linear_1611_4689" x1="212" y1="162.75" x2="114" y2="-54.25" gradientUnits="userSpaceOnUse">
<stop stop-color="#FD91E4"/>
<stop offset="1" stop-color="#9B87FB" stop-opacity="0"/>
</linearGradient>
<radialGradient id="paint3_radial_1611_4689" cx="0" cy="0" r="1" gradientUnits="userSpaceOnUse" gradientTransform="translate(3.74999 20.125) rotate(28.6918) scale(147.626 146.829)">
<stop stop-color="white"/>
<stop offset="0.464944" stop-color="white" stop-opacity="0"/>
</radialGradient>
<radialGradient id="paint4_radial_1611_4689" cx="0" cy="0" r="1" gradientUnits="userSpaceOnUse" gradientTransform="translate(91.7361 67.7646) rotate(46.757) scale(77.0753)">
<stop stop-color="white"/>
<stop offset="0.464944" stop-color="white" stop-opacity="0"/>
</radialGradient>
</defs>
</svg>
