<svg width="427" height="302" viewBox="0 0 427 302" fill="none" xmlns="http://www.w3.org/2000/svg">
<g clip-path="url(#clip0_971_3451)">
<path d="M341.068 4.27379H76.5392C67.3976 4.27379 60 11.6529 60 20.7575V160.933C60 170.037 67.3976 177.43 76.5392 177.43H86.8762V202.373C86.8762 208.364 93.8378 211.675 98.507 207.915L136.339 177.43H341.082C350.209 177.43 357.621 170.051 357.621 160.933V20.7575C357.621 11.6529 350.223 4.25977 341.082 4.25977L341.068 4.27379Z" fill="#DAD9E6"/>
<path d="M350.055 1.90234H85.5265C76.399 1.90234 68.9873 9.28146 68.9873 18.4001V158.575C68.9873 167.68 76.3849 175.073 85.5265 175.073H95.8635V200.016C95.8635 206.006 102.825 209.317 107.494 205.557L145.326 175.073H350.069C359.196 175.073 366.608 167.694 366.608 158.575V18.4001C366.608 9.29548 359.211 1.90234 350.069 1.90234H350.055Z" fill="url(#paint0_linear_971_3451)" stroke="#1D1D29" stroke-width="2" stroke-miterlimit="10"/>
<path d="M215.927 61.5957H330.731" stroke="#1D1D29" stroke-width="3" stroke-miterlimit="10" stroke-linecap="round"/>
<path d="M215.786 91.7715H288.989" stroke="#1D1D29" stroke-width="3" stroke-miterlimit="10" stroke-linecap="round"/>
<path d="M305.078 91.7715H330.731" stroke="#1D1D29" stroke-width="3" stroke-miterlimit="10" stroke-linecap="round"/>
<path d="M215.927 118.902H330.731" stroke="#1D1D29" stroke-width="3" stroke-miterlimit="10" stroke-linecap="round"/>
<path d="M128.983 69.7598L107.986 89.5262C107.536 89.9611 107.536 90.6766 107.986 91.0975L128.969 110.471" stroke="#1D1D29" stroke-width="3" stroke-miterlimit="10" stroke-linecap="round"/>
<path d="M143.694 120.867L155.185 58.2852" stroke="#1D1D29" stroke-width="3" stroke-miterlimit="10" stroke-linecap="round"/>
<path d="M170.346 69.7598L191.343 89.5262C191.793 89.9611 191.793 90.6766 191.343 91.0975L170.36 110.471" stroke="#1D1D29" stroke-width="3" stroke-miterlimit="10" stroke-linecap="round"/>
</g>
<g clip-path="url(#clip1_971_3451)">
<path d="M395.163 235.814H31.8382C14.9443 235.814 1.24902 250.225 1.24902 268.001C1.24902 285.777 14.9443 300.187 31.8382 300.187H395.163C412.057 300.187 425.752 285.777 425.752 268.001C425.752 250.225 412.057 235.814 395.163 235.814Z" fill="#101018"/>
<path d="M395.163 235.814H31.8382C14.9443 235.814 1.24902 250.225 1.24902 268.001C1.24902 285.777 14.9443 300.187 31.8382 300.187H395.163C412.057 300.187 425.752 285.777 425.752 268.001C425.752 250.225 412.057 235.814 395.163 235.814Z" fill="#A688FF" fill-opacity="0.15"/>
<path d="M395.163 235.814H31.8382C14.9443 235.814 1.24902 250.225 1.24902 268.001C1.24902 285.777 14.9443 300.187 31.8382 300.187H395.163C412.057 300.187 425.752 285.777 425.752 268.001C425.752 250.225 412.057 235.814 395.163 235.814Z" fill="#5ED9FF" fill-opacity="0.05"/>
<path d="M395.163 235.814H31.8382C14.9443 235.814 1.24902 250.225 1.24902 268.001C1.24902 285.777 14.9443 300.187 31.8382 300.187H395.163C412.057 300.187 425.752 285.777 425.752 268.001C425.752 250.225 412.057 235.814 395.163 235.814Z" stroke="#1D1D29" stroke-width="2" stroke-miterlimit="10"/>
<path d="M32.4013 274.893V263.256H33.8104V268.438H40.0149V263.256H41.424V274.893H40.0149V269.688H33.8104V274.893H32.4013ZM47.6087 275.074C46.8208 275.074 46.1295 274.887 45.5348 274.512C44.9439 274.137 44.4818 273.612 44.1484 272.938C43.8189 272.264 43.6541 271.476 43.6541 270.574C43.6541 269.665 43.8189 268.872 44.1484 268.194C44.4818 267.516 44.9439 266.989 45.5348 266.614C46.1295 266.239 46.8208 266.052 47.6087 266.052C48.3965 266.052 49.0859 266.239 49.6768 266.614C50.2715 266.989 50.7337 267.516 51.0632 268.194C51.3965 268.872 51.5632 269.665 51.5632 270.574C51.5632 271.476 51.3965 272.264 51.0632 272.938C50.7337 273.612 50.2715 274.137 49.6768 274.512C49.0859 274.887 48.3965 275.074 47.6087 275.074ZM47.6087 273.87C48.2071 273.87 48.6996 273.716 49.0859 273.41C49.4723 273.103 49.7583 272.699 49.9439 272.199C50.1295 271.699 50.2223 271.158 50.2223 270.574C50.2223 269.991 50.1295 269.448 49.9439 268.944C49.7583 268.44 49.4723 268.033 49.0859 267.722C48.6996 267.412 48.2071 267.256 47.6087 267.256C47.0102 267.256 46.5178 267.412 46.1314 267.722C45.745 268.033 45.459 268.44 45.2734 268.944C45.0878 269.448 44.995 269.991 44.995 270.574C44.995 271.158 45.0878 271.699 45.2734 272.199C45.459 272.699 45.745 273.103 46.1314 273.41C46.5178 273.716 47.0102 273.87 47.6087 273.87ZM55.2905 274.893L52.6314 266.165H54.0405L55.9268 272.847H56.0178L57.8814 266.165H59.3132L61.1541 272.824H61.245L63.1314 266.165H64.5405L61.8814 274.893H60.5632L58.6541 268.188H58.5178L56.6087 274.893H55.2905ZM74.3587 275.074C73.5405 275.074 72.8359 274.881 72.245 274.495C71.6541 274.108 71.1996 273.576 70.8814 272.898C70.5632 272.22 70.4041 271.446 70.4041 270.574C70.4041 269.688 70.567 268.906 70.8928 268.228C71.2223 267.546 71.6806 267.014 72.2678 266.631C72.8587 266.245 73.5481 266.052 74.3359 266.052C74.9496 266.052 75.5026 266.165 75.995 266.393C76.4875 266.62 76.8909 266.938 77.2053 267.347C77.5196 267.756 77.7147 268.233 77.7905 268.779H76.4496C76.3473 268.381 76.12 268.029 75.7678 267.722C75.4193 267.412 74.9496 267.256 74.3587 267.256C73.8359 267.256 73.3776 267.393 72.9837 267.665C72.5935 267.934 72.2886 268.315 72.0689 268.807C71.853 269.296 71.745 269.87 71.745 270.529C71.745 271.203 71.8511 271.79 72.0632 272.29C72.2791 272.79 72.5821 273.179 72.9723 273.455C73.3662 273.732 73.8284 273.87 74.3587 273.87C74.7071 273.87 75.0234 273.809 75.3075 273.688C75.5916 273.567 75.8321 273.393 76.0291 273.165C76.2261 272.938 76.3662 272.665 76.4496 272.347H77.7905C77.7147 272.862 77.5272 273.326 77.228 273.739C76.9325 274.148 76.5405 274.474 76.0518 274.716C75.567 274.955 75.0026 275.074 74.3587 275.074ZM82.3189 275.097C81.7659 275.097 81.264 274.993 80.8132 274.785C80.3625 274.573 80.0045 274.268 79.7393 273.87C79.4742 273.468 79.3416 272.983 79.3416 272.415C79.3416 271.915 79.4401 271.51 79.6371 271.199C79.834 270.885 80.0973 270.639 80.4268 270.461C80.7564 270.283 81.12 270.15 81.5178 270.063C81.9193 269.972 82.3227 269.9 82.728 269.847C83.2583 269.779 83.6882 269.728 84.0178 269.694C84.3511 269.656 84.5935 269.593 84.745 269.506C84.9003 269.419 84.978 269.268 84.978 269.052V269.006C84.978 268.446 84.8246 268.01 84.5178 267.699C84.2147 267.389 83.7545 267.233 83.1371 267.233C82.4969 267.233 81.995 267.374 81.6314 267.654C81.2678 267.934 81.0121 268.233 80.8643 268.552L79.5916 268.097C79.8189 267.567 80.1219 267.154 80.5007 266.858C80.8833 266.559 81.3 266.351 81.7507 266.233C82.2053 266.112 82.6522 266.052 83.0916 266.052C83.3719 266.052 83.6939 266.086 84.0575 266.154C84.425 266.218 84.7791 266.353 85.12 266.557C85.4647 266.762 85.7507 267.071 85.978 267.483C86.2053 267.896 86.3189 268.449 86.3189 269.143V274.893H84.978V273.711H84.9098C84.8189 273.9 84.6674 274.103 84.4553 274.319C84.2431 274.535 83.9609 274.718 83.6087 274.87C83.2564 275.021 82.8265 275.097 82.3189 275.097ZM82.5234 273.893C83.0537 273.893 83.5007 273.788 83.8643 273.58C84.2318 273.372 84.5083 273.103 84.6939 272.773C84.8833 272.444 84.978 272.097 84.978 271.733V270.506C84.9212 270.574 84.7962 270.637 84.603 270.694C84.4136 270.747 84.1939 270.794 83.9439 270.836C83.6977 270.874 83.4571 270.908 83.2223 270.938C82.9912 270.965 82.8037 270.987 82.6598 271.006C82.3113 271.052 81.9856 271.126 81.6825 271.228C81.3833 271.326 81.1409 271.476 80.9553 271.677C80.7734 271.874 80.6825 272.143 80.6825 272.483C80.6825 272.949 80.8549 273.302 81.1996 273.54C81.5481 273.775 81.9893 273.893 82.5234 273.893ZM90.1072 269.643V274.893H88.7663V266.165H90.0618V267.529H90.1754C90.38 267.086 90.6906 266.73 91.1072 266.461C91.5239 266.188 92.0618 266.052 92.7209 266.052C93.3118 266.052 93.8288 266.173 94.272 266.415C94.7152 266.654 95.0599 267.018 95.3061 267.506C95.5523 267.991 95.6754 268.605 95.6754 269.347V274.893H94.3345V269.438C94.3345 268.752 94.1565 268.218 93.8004 267.836C93.4444 267.449 92.9557 267.256 92.3345 267.256C91.9065 267.256 91.5239 267.349 91.1868 267.535C90.8535 267.72 90.5902 267.991 90.397 268.347C90.2038 268.703 90.1072 269.135 90.1072 269.643ZM105.194 275.097C104.641 275.097 104.139 274.993 103.688 274.785C103.237 274.573 102.879 274.268 102.614 273.87C102.349 273.468 102.217 272.983 102.217 272.415C102.217 271.915 102.315 271.51 102.512 271.199C102.709 270.885 102.972 270.639 103.302 270.461C103.631 270.283 103.995 270.15 104.393 270.063C104.794 269.972 105.198 269.9 105.603 269.847C106.133 269.779 106.563 269.728 106.893 269.694C107.226 269.656 107.469 269.593 107.62 269.506C107.775 269.419 107.853 269.268 107.853 269.052V269.006C107.853 268.446 107.7 268.01 107.393 267.699C107.09 267.389 106.629 267.233 106.012 267.233C105.372 267.233 104.87 267.374 104.506 267.654C104.143 267.934 103.887 268.233 103.739 268.552L102.467 268.097C102.694 267.567 102.997 267.154 103.376 266.858C103.758 266.559 104.175 266.351 104.626 266.233C105.08 266.112 105.527 266.052 105.967 266.052C106.247 266.052 106.569 266.086 106.933 266.154C107.3 266.218 107.654 266.353 107.995 266.557C108.34 266.762 108.626 267.071 108.853 267.483C109.08 267.896 109.194 268.449 109.194 269.143V274.893H107.853V273.711H107.785C107.694 273.9 107.542 274.103 107.33 274.319C107.118 274.535 106.836 274.718 106.484 274.87C106.131 275.021 105.701 275.097 105.194 275.097ZM105.398 273.893C105.929 273.893 106.376 273.788 106.739 273.58C107.107 273.372 107.383 273.103 107.569 272.773C107.758 272.444 107.853 272.097 107.853 271.733V270.506C107.796 270.574 107.671 270.637 107.478 270.694C107.289 270.747 107.069 270.794 106.819 270.836C106.573 270.874 106.332 270.908 106.097 270.938C105.866 270.965 105.679 270.987 105.535 271.006C105.186 271.052 104.861 271.126 104.558 271.228C104.258 271.326 104.016 271.476 103.83 271.677C103.648 271.874 103.558 272.143 103.558 272.483C103.558 272.949 103.73 273.302 104.075 273.54C104.423 273.775 104.864 273.893 105.398 273.893ZM116.141 274.893V266.165H117.437V267.529H117.55C117.732 267.063 118.026 266.701 118.431 266.444C118.836 266.182 119.323 266.052 119.891 266.052C120.467 266.052 120.946 266.182 121.329 266.444C121.715 266.701 122.016 267.063 122.232 267.529H122.323C122.547 267.078 122.882 266.72 123.329 266.455C123.776 266.186 124.312 266.052 124.937 266.052C125.717 266.052 126.355 266.296 126.852 266.785C127.348 267.269 127.596 268.025 127.596 269.052V274.893H126.255V269.052C126.255 268.408 126.079 267.948 125.727 267.671C125.374 267.394 124.96 267.256 124.482 267.256C123.869 267.256 123.393 267.442 123.056 267.813C122.719 268.18 122.55 268.646 122.55 269.211V274.893H121.187V268.915C121.187 268.419 121.026 268.019 120.704 267.716C120.382 267.41 119.967 267.256 119.46 267.256C119.111 267.256 118.785 267.349 118.482 267.535C118.183 267.72 117.941 267.978 117.755 268.307C117.573 268.633 117.482 269.01 117.482 269.438V274.893H116.141ZM132.616 275.097C132.063 275.097 131.561 274.993 131.11 274.785C130.659 274.573 130.301 274.268 130.036 273.87C129.771 273.468 129.638 272.983 129.638 272.415C129.638 271.915 129.737 271.51 129.934 271.199C130.131 270.885 130.394 270.639 130.724 270.461C131.053 270.283 131.417 270.15 131.815 270.063C132.216 269.972 132.62 269.9 133.025 269.847C133.555 269.779 133.985 269.728 134.315 269.694C134.648 269.656 134.89 269.593 135.042 269.506C135.197 269.419 135.275 269.268 135.275 269.052V269.006C135.275 268.446 135.121 268.01 134.815 267.699C134.512 267.389 134.051 267.233 133.434 267.233C132.794 267.233 132.292 267.374 131.928 267.654C131.565 267.934 131.309 268.233 131.161 268.552L129.888 268.097C130.116 267.567 130.419 267.154 130.798 266.858C131.18 266.559 131.597 266.351 132.048 266.233C132.502 266.112 132.949 266.052 133.388 266.052C133.669 266.052 133.991 266.086 134.354 266.154C134.722 266.218 135.076 266.353 135.417 266.557C135.762 266.762 136.048 267.071 136.275 267.483C136.502 267.896 136.616 268.449 136.616 269.143V274.893H135.275V273.711H135.207C135.116 273.9 134.964 274.103 134.752 274.319C134.54 274.535 134.258 274.718 133.906 274.87C133.553 275.021 133.123 275.097 132.616 275.097ZM132.82 273.893C133.351 273.893 133.798 273.788 134.161 273.58C134.529 273.372 134.805 273.103 134.991 272.773C135.18 272.444 135.275 272.097 135.275 271.733V270.506C135.218 270.574 135.093 270.637 134.9 270.694C134.71 270.747 134.491 270.794 134.241 270.836C133.995 270.874 133.754 270.908 133.519 270.938C133.288 270.965 133.101 270.987 132.957 271.006C132.608 271.052 132.282 271.126 131.979 271.228C131.68 271.326 131.438 271.476 131.252 271.677C131.07 271.874 130.979 272.143 130.979 272.483C130.979 272.949 131.152 273.302 131.496 273.54C131.845 273.775 132.286 273.893 132.82 273.893ZM140.313 271.711L140.29 270.052H140.563L144.381 266.165H146.04L141.972 270.279H141.859L140.313 271.711ZM139.063 274.893V263.256H140.404V274.893H139.063ZM144.609 274.893L141.2 270.574L142.154 269.643L146.313 274.893H144.609ZM151.066 275.074C150.225 275.074 149.5 274.889 148.89 274.518C148.284 274.143 147.816 273.62 147.487 272.949C147.161 272.275 146.998 271.491 146.998 270.597C146.998 269.703 147.161 268.915 147.487 268.233C147.816 267.548 148.274 267.014 148.862 266.631C149.452 266.245 150.142 266.052 150.93 266.052C151.384 266.052 151.833 266.127 152.276 266.279C152.719 266.43 153.123 266.677 153.487 267.018C153.85 267.355 154.14 267.802 154.356 268.358C154.572 268.915 154.68 269.601 154.68 270.415V270.983H147.952V269.824H153.316C153.316 269.332 153.218 268.893 153.021 268.506C152.827 268.12 152.551 267.815 152.191 267.591C151.835 267.368 151.415 267.256 150.93 267.256C150.396 267.256 149.933 267.389 149.543 267.654C149.157 267.915 148.86 268.256 148.651 268.677C148.443 269.097 148.339 269.548 148.339 270.029V270.802C148.339 271.461 148.452 272.019 148.68 272.478C148.911 272.932 149.231 273.279 149.64 273.518C150.049 273.752 150.524 273.87 151.066 273.87C151.418 273.87 151.737 273.821 152.021 273.722C152.308 273.62 152.557 273.468 152.765 273.268C152.973 273.063 153.134 272.809 153.248 272.506L154.543 272.87C154.407 273.309 154.178 273.696 153.856 274.029C153.534 274.358 153.136 274.616 152.663 274.802C152.189 274.983 151.657 275.074 151.066 275.074ZM163.788 275.097C163.235 275.097 162.733 274.993 162.282 274.785C161.831 274.573 161.473 274.268 161.208 273.87C160.943 273.468 160.81 272.983 160.81 272.415C160.81 271.915 160.909 271.51 161.106 271.199C161.303 270.885 161.566 270.639 161.896 270.461C162.225 270.283 162.589 270.15 162.987 270.063C163.388 269.972 163.791 269.9 164.197 269.847C164.727 269.779 165.157 269.728 165.487 269.694C165.82 269.656 166.062 269.593 166.214 269.506C166.369 269.419 166.447 269.268 166.447 269.052V269.006C166.447 268.446 166.293 268.01 165.987 267.699C165.683 267.389 165.223 267.233 164.606 267.233C163.966 267.233 163.464 267.374 163.1 267.654C162.737 267.934 162.481 268.233 162.333 268.552L161.06 268.097C161.288 267.567 161.591 267.154 161.969 266.858C162.352 266.559 162.769 266.351 163.219 266.233C163.674 266.112 164.121 266.052 164.56 266.052C164.841 266.052 165.163 266.086 165.526 266.154C165.894 266.218 166.248 266.353 166.589 266.557C166.933 266.762 167.219 267.071 167.447 267.483C167.674 267.896 167.788 268.449 167.788 269.143V274.893H166.447V273.711H166.379C166.288 273.9 166.136 274.103 165.924 274.319C165.712 274.535 165.43 274.718 165.077 274.87C164.725 275.021 164.295 275.097 163.788 275.097ZM163.992 273.893C164.522 273.893 164.969 273.788 165.333 273.58C165.701 273.372 165.977 273.103 166.163 272.773C166.352 272.444 166.447 272.097 166.447 271.733V270.506C166.39 270.574 166.265 270.637 166.072 270.694C165.882 270.747 165.663 270.794 165.413 270.836C165.166 270.874 164.926 270.908 164.691 270.938C164.46 270.965 164.272 270.987 164.129 271.006C163.78 271.052 163.454 271.126 163.151 271.228C162.852 271.326 162.61 271.476 162.424 271.677C162.242 271.874 162.151 272.143 162.151 272.483C162.151 272.949 162.324 273.302 162.668 273.54C163.017 273.775 163.458 273.893 163.992 273.893ZM178.281 275.074C177.462 275.074 176.758 274.881 176.167 274.495C175.576 274.108 175.121 273.576 174.803 272.898C174.485 272.22 174.326 271.446 174.326 270.574C174.326 269.688 174.489 268.906 174.815 268.228C175.144 267.546 175.603 267.014 176.19 266.631C176.781 266.245 177.47 266.052 178.258 266.052C178.871 266.052 179.424 266.165 179.917 266.393C180.409 266.62 180.813 266.938 181.127 267.347C181.442 267.756 181.637 268.233 181.712 268.779H180.371C180.269 268.381 180.042 268.029 179.69 267.722C179.341 267.412 178.871 267.256 178.281 267.256C177.758 267.256 177.299 267.393 176.906 267.665C176.515 267.934 176.21 268.315 175.991 268.807C175.775 269.296 175.667 269.87 175.667 270.529C175.667 271.203 175.773 271.79 175.985 272.29C176.201 272.79 176.504 273.179 176.894 273.455C177.288 273.732 177.75 273.87 178.281 273.87C178.629 273.87 178.945 273.809 179.229 273.688C179.513 273.567 179.754 273.393 179.951 273.165C180.148 272.938 180.288 272.665 180.371 272.347H181.712C181.637 272.862 181.449 273.326 181.15 273.739C180.854 274.148 180.462 274.474 179.974 274.716C179.489 274.955 178.924 275.074 178.281 275.074ZM185.013 269.643V274.893H183.673V263.256H185.013V267.529H185.127C185.332 267.078 185.638 266.72 186.048 266.455C186.46 266.186 187.01 266.052 187.695 266.052C188.29 266.052 188.811 266.171 189.258 266.41C189.705 266.644 190.051 267.006 190.298 267.495C190.548 267.98 190.673 268.597 190.673 269.347V274.893H189.332V269.438C189.332 268.745 189.152 268.209 188.792 267.83C188.436 267.448 187.942 267.256 187.309 267.256C186.87 267.256 186.476 267.349 186.127 267.535C185.782 267.72 185.51 267.991 185.309 268.347C185.112 268.703 185.013 269.135 185.013 269.643ZM195.694 275.097C195.141 275.097 194.639 274.993 194.188 274.785C193.737 274.573 193.379 274.268 193.114 273.87C192.849 273.468 192.717 272.983 192.717 272.415C192.717 271.915 192.815 271.51 193.012 271.199C193.209 270.885 193.472 270.639 193.802 270.461C194.131 270.283 194.495 270.15 194.893 270.063C195.294 269.972 195.698 269.9 196.103 269.847C196.633 269.779 197.063 269.728 197.393 269.694C197.726 269.656 197.969 269.593 198.12 269.506C198.275 269.419 198.353 269.268 198.353 269.052V269.006C198.353 268.446 198.2 268.01 197.893 267.699C197.59 267.389 197.129 267.233 196.512 267.233C195.872 267.233 195.37 267.374 195.006 267.654C194.643 267.934 194.387 268.233 194.239 268.552L192.967 268.097C193.194 267.567 193.497 267.154 193.876 266.858C194.258 266.559 194.675 266.351 195.126 266.233C195.58 266.112 196.027 266.052 196.467 266.052C196.747 266.052 197.069 266.086 197.433 266.154C197.8 266.218 198.154 266.353 198.495 266.557C198.84 266.762 199.126 267.071 199.353 267.483C199.58 267.896 199.694 268.449 199.694 269.143V274.893H198.353V273.711H198.285C198.194 273.9 198.042 274.103 197.83 274.319C197.618 274.535 197.336 274.718 196.984 274.87C196.631 275.021 196.201 275.097 195.694 275.097ZM195.898 273.893C196.429 273.893 196.876 273.788 197.239 273.58C197.607 273.372 197.883 273.103 198.069 272.773C198.258 272.444 198.353 272.097 198.353 271.733V270.506C198.296 270.574 198.171 270.637 197.978 270.694C197.789 270.747 197.569 270.794 197.319 270.836C197.073 270.874 196.832 270.908 196.597 270.938C196.366 270.965 196.179 270.987 196.035 271.006C195.686 271.052 195.361 271.126 195.058 271.228C194.758 271.326 194.516 271.476 194.33 271.677C194.148 271.874 194.058 272.143 194.058 272.483C194.058 272.949 194.23 273.302 194.575 273.54C194.923 273.775 195.364 273.893 195.898 273.893ZM205.937 266.165V267.302H201.414V266.165H205.937ZM202.732 264.074H204.073V272.393C204.073 272.771 204.128 273.055 204.238 273.245C204.352 273.43 204.496 273.555 204.67 273.62C204.848 273.68 205.035 273.711 205.232 273.711C205.38 273.711 205.501 273.703 205.596 273.688C205.691 273.669 205.766 273.654 205.823 273.643L206.096 274.847C206.005 274.881 205.878 274.915 205.715 274.949C205.552 274.987 205.346 275.006 205.096 275.006C204.717 275.006 204.346 274.925 203.982 274.762C203.622 274.599 203.323 274.351 203.085 274.018C202.85 273.684 202.732 273.264 202.732 272.756V264.074ZM215.022 275.097C214.469 275.097 213.967 274.993 213.516 274.785C213.066 274.573 212.708 274.268 212.442 273.87C212.177 273.468 212.045 272.983 212.045 272.415C212.045 271.915 212.143 271.51 212.34 271.199C212.537 270.885 212.8 270.639 213.13 270.461C213.46 270.283 213.823 270.15 214.221 270.063C214.622 269.972 215.026 269.9 215.431 269.847C215.961 269.779 216.391 269.728 216.721 269.694C217.054 269.656 217.297 269.593 217.448 269.506C217.603 269.419 217.681 269.268 217.681 269.052V269.006C217.681 268.446 217.528 268.01 217.221 267.699C216.918 267.389 216.458 267.233 215.84 267.233C215.2 267.233 214.698 267.374 214.335 267.654C213.971 267.934 213.715 268.233 213.567 268.552L212.295 268.097C212.522 267.567 212.825 267.154 213.204 266.858C213.586 266.559 214.003 266.351 214.454 266.233C214.908 266.112 215.355 266.052 215.795 266.052C216.075 266.052 216.397 266.086 216.761 266.154C217.128 266.218 217.482 266.353 217.823 266.557C218.168 266.762 218.454 267.071 218.681 267.483C218.908 267.896 219.022 268.449 219.022 269.143V274.893H217.681V273.711H217.613C217.522 273.9 217.371 274.103 217.158 274.319C216.946 274.535 216.664 274.718 216.312 274.87C215.96 275.021 215.53 275.097 215.022 275.097ZM215.227 273.893C215.757 273.893 216.204 273.788 216.567 273.58C216.935 273.372 217.211 273.103 217.397 272.773C217.586 272.444 217.681 272.097 217.681 271.733V270.506C217.624 270.574 217.499 270.637 217.306 270.694C217.117 270.747 216.897 270.794 216.647 270.836C216.401 270.874 216.16 270.908 215.925 270.938C215.694 270.965 215.507 270.987 215.363 271.006C215.014 271.052 214.689 271.126 214.386 271.228C214.086 271.326 213.844 271.476 213.658 271.677C213.477 271.874 213.386 272.143 213.386 272.483C213.386 272.949 213.558 273.302 213.903 273.54C214.251 273.775 214.692 273.893 215.227 273.893ZM221.469 278.165V266.165H222.765V267.552H222.924C223.022 267.4 223.159 267.207 223.333 266.972C223.511 266.733 223.765 266.521 224.094 266.336C224.428 266.146 224.879 266.052 225.447 266.052C226.182 266.052 226.829 266.235 227.39 266.603C227.951 266.97 228.388 267.491 228.702 268.165C229.017 268.84 229.174 269.635 229.174 270.552C229.174 271.476 229.017 272.277 228.702 272.955C228.388 273.629 227.952 274.152 227.396 274.523C226.839 274.891 226.197 275.074 225.469 275.074C224.909 275.074 224.46 274.982 224.123 274.796C223.786 274.607 223.526 274.393 223.344 274.154C223.163 273.912 223.022 273.711 222.924 273.552H222.81V278.165H221.469ZM222.788 270.529C222.788 271.188 222.884 271.769 223.077 272.273C223.271 272.773 223.553 273.165 223.924 273.449C224.295 273.73 224.75 273.87 225.288 273.87C225.848 273.87 226.316 273.722 226.691 273.427C227.07 273.127 227.354 272.726 227.543 272.222C227.737 271.715 227.833 271.15 227.833 270.529C227.833 269.915 227.738 269.362 227.549 268.87C227.363 268.374 227.081 267.982 226.702 267.694C226.327 267.402 225.856 267.256 225.288 267.256C224.742 267.256 224.284 267.394 223.913 267.671C223.541 267.944 223.261 268.326 223.072 268.819C222.882 269.307 222.788 269.877 222.788 270.529ZM231.219 278.165V266.165H232.515V267.552H232.674C232.772 267.4 232.909 267.207 233.083 266.972C233.261 266.733 233.515 266.521 233.844 266.336C234.178 266.146 234.629 266.052 235.197 266.052C235.932 266.052 236.579 266.235 237.14 266.603C237.701 266.97 238.138 267.491 238.452 268.165C238.767 268.84 238.924 269.635 238.924 270.552C238.924 271.476 238.767 272.277 238.452 272.955C238.138 273.629 237.702 274.152 237.146 274.523C236.589 274.891 235.947 275.074 235.219 275.074C234.659 275.074 234.21 274.982 233.873 274.796C233.536 274.607 233.276 274.393 233.094 274.154C232.913 273.912 232.772 273.711 232.674 273.552H232.56V278.165H231.219ZM232.538 270.529C232.538 271.188 232.634 271.769 232.827 272.273C233.021 272.773 233.303 273.165 233.674 273.449C234.045 273.73 234.5 273.87 235.038 273.87C235.598 273.87 236.066 273.722 236.441 273.427C236.82 273.127 237.104 272.726 237.293 272.222C237.487 271.715 237.583 271.15 237.583 270.529C237.583 269.915 237.488 269.362 237.299 268.87C237.113 268.374 236.831 267.982 236.452 267.694C236.077 267.402 235.606 267.256 235.038 267.256C234.492 267.256 234.034 267.394 233.663 267.671C233.291 267.944 233.011 268.326 232.822 268.819C232.632 269.307 232.538 269.877 232.538 270.529ZM242.31 263.256V274.893H240.969V263.256H242.31ZM244.766 274.893V266.165H246.107V274.893H244.766ZM245.448 264.711C245.187 264.711 244.961 264.622 244.772 264.444C244.586 264.266 244.494 264.052 244.494 263.802C244.494 263.552 244.586 263.338 244.772 263.16C244.961 262.982 245.187 262.893 245.448 262.893C245.71 262.893 245.933 262.982 246.119 263.16C246.308 263.338 246.403 263.552 246.403 263.802C246.403 264.052 246.308 264.266 246.119 264.444C245.933 264.622 245.71 264.711 245.448 264.711ZM252.109 275.074C251.29 275.074 250.586 274.881 249.995 274.495C249.404 274.108 248.95 273.576 248.631 272.898C248.313 272.22 248.154 271.446 248.154 270.574C248.154 269.688 248.317 268.906 248.643 268.228C248.972 267.546 249.431 267.014 250.018 266.631C250.609 266.245 251.298 266.052 252.086 266.052C252.7 266.052 253.253 266.165 253.745 266.393C254.237 266.62 254.641 266.938 254.955 267.347C255.27 267.756 255.465 268.233 255.54 268.779H254.2C254.097 268.381 253.87 268.029 253.518 267.722C253.169 267.412 252.7 267.256 252.109 267.256C251.586 267.256 251.128 267.393 250.734 267.665C250.344 267.934 250.039 268.315 249.819 268.807C249.603 269.296 249.495 269.87 249.495 270.529C249.495 271.203 249.601 271.79 249.813 272.29C250.029 272.79 250.332 273.179 250.722 273.455C251.116 273.732 251.578 273.87 252.109 273.87C252.457 273.87 252.773 273.809 253.058 273.688C253.342 273.567 253.582 273.393 253.779 273.165C253.976 272.938 254.116 272.665 254.2 272.347H255.54C255.465 272.862 255.277 273.326 254.978 273.739C254.683 274.148 254.29 274.474 253.802 274.716C253.317 274.955 252.753 275.074 252.109 275.074ZM260.069 275.097C259.516 275.097 259.014 274.993 258.563 274.785C258.112 274.573 257.754 274.268 257.489 273.87C257.224 273.468 257.092 272.983 257.092 272.415C257.092 271.915 257.19 271.51 257.387 271.199C257.584 270.885 257.847 270.639 258.177 270.461C258.506 270.283 258.87 270.15 259.268 270.063C259.669 269.972 260.073 269.9 260.478 269.847C261.008 269.779 261.438 269.728 261.768 269.694C262.101 269.656 262.344 269.593 262.495 269.506C262.65 269.419 262.728 269.268 262.728 269.052V269.006C262.728 268.446 262.575 268.01 262.268 267.699C261.965 267.389 261.504 267.233 260.887 267.233C260.247 267.233 259.745 267.374 259.381 267.654C259.018 267.934 258.762 268.233 258.614 268.552L257.342 268.097C257.569 267.567 257.872 267.154 258.251 266.858C258.633 266.559 259.05 266.351 259.501 266.233C259.955 266.112 260.402 266.052 260.842 266.052C261.122 266.052 261.444 266.086 261.808 266.154C262.175 266.218 262.529 266.353 262.87 266.557C263.215 266.762 263.501 267.071 263.728 267.483C263.955 267.896 264.069 268.449 264.069 269.143V274.893H262.728V273.711H262.66C262.569 273.9 262.417 274.103 262.205 274.319C261.993 274.535 261.711 274.718 261.359 274.87C261.006 275.021 260.576 275.097 260.069 275.097ZM260.273 273.893C260.804 273.893 261.251 273.788 261.614 273.58C261.982 273.372 262.258 273.103 262.444 272.773C262.633 272.444 262.728 272.097 262.728 271.733V270.506C262.671 270.574 262.546 270.637 262.353 270.694C262.164 270.747 261.944 270.794 261.694 270.836C261.448 270.874 261.207 270.908 260.972 270.938C260.741 270.965 260.554 270.987 260.41 271.006C260.061 271.052 259.736 271.126 259.433 271.228C259.133 271.326 258.891 271.476 258.705 271.677C258.523 271.874 258.433 272.143 258.433 272.483C258.433 272.949 258.605 273.302 258.95 273.54C259.298 273.775 259.739 273.893 260.273 273.893ZM270.312 266.165V267.302H265.789V266.165H270.312ZM267.107 264.074H268.448V272.393C268.448 272.771 268.503 273.055 268.613 273.245C268.727 273.43 268.871 273.555 269.045 273.62C269.223 273.68 269.41 273.711 269.607 273.711C269.755 273.711 269.876 273.703 269.971 273.688C270.066 273.669 270.141 273.654 270.198 273.643L270.471 274.847C270.38 274.881 270.253 274.915 270.09 274.949C269.927 274.987 269.721 275.006 269.471 275.006C269.092 275.006 268.721 274.925 268.357 274.762C267.997 274.599 267.698 274.351 267.46 274.018C267.225 273.684 267.107 273.264 267.107 272.756V264.074ZM272.329 274.893V266.165H273.67V274.893H272.329ZM273.011 264.711C272.749 264.711 272.524 264.622 272.335 264.444C272.149 264.266 272.056 264.052 272.056 263.802C272.056 263.552 272.149 263.338 272.335 263.16C272.524 262.982 272.749 262.893 273.011 262.893C273.272 262.893 273.496 262.982 273.681 263.16C273.871 263.338 273.965 263.552 273.965 263.802C273.965 264.052 273.871 264.266 273.681 264.444C273.496 264.622 273.272 264.711 273.011 264.711ZM279.671 275.074C278.883 275.074 278.192 274.887 277.597 274.512C277.006 274.137 276.544 273.612 276.211 272.938C275.881 272.264 275.717 271.476 275.717 270.574C275.717 269.665 275.881 268.872 276.211 268.194C276.544 267.516 277.006 266.989 277.597 266.614C278.192 266.239 278.883 266.052 279.671 266.052C280.459 266.052 281.148 266.239 281.739 266.614C282.334 266.989 282.796 267.516 283.126 268.194C283.459 268.872 283.626 269.665 283.626 270.574C283.626 271.476 283.459 272.264 283.126 272.938C282.796 273.612 282.334 274.137 281.739 274.512C281.148 274.887 280.459 275.074 279.671 275.074ZM279.671 273.87C280.27 273.87 280.762 273.716 281.148 273.41C281.535 273.103 281.821 272.699 282.006 272.199C282.192 271.699 282.285 271.158 282.285 270.574C282.285 269.991 282.192 269.448 282.006 268.944C281.821 268.44 281.535 268.033 281.148 267.722C280.762 267.412 280.27 267.256 279.671 267.256C279.073 267.256 278.58 267.412 278.194 267.722C277.808 268.033 277.522 268.44 277.336 268.944C277.15 269.448 277.058 269.991 277.058 270.574C277.058 271.158 277.15 271.699 277.336 272.199C277.522 272.699 277.808 273.103 278.194 273.41C278.58 273.716 279.073 273.87 279.671 273.87ZM287.013 269.643V274.893H285.673V266.165H286.968V267.529H287.082C287.286 267.086 287.597 266.73 288.013 266.461C288.43 266.188 288.968 266.052 289.627 266.052C290.218 266.052 290.735 266.173 291.178 266.415C291.621 266.654 291.966 267.018 292.212 267.506C292.459 267.991 292.582 268.605 292.582 269.347V274.893H291.241V269.438C291.241 268.752 291.063 268.218 290.707 267.836C290.351 267.449 289.862 267.256 289.241 267.256C288.813 267.256 288.43 267.349 288.093 267.535C287.76 267.72 287.496 267.991 287.303 268.347C287.11 268.703 287.013 269.135 287.013 269.643ZM296.782 271.62V271.552C296.79 270.828 296.865 270.252 297.009 269.824C297.153 269.396 297.358 269.05 297.623 268.785C297.888 268.519 298.206 268.275 298.577 268.052C298.801 267.915 299.002 267.754 299.18 267.569C299.358 267.379 299.498 267.162 299.6 266.915C299.706 266.669 299.759 266.396 299.759 266.097C299.759 265.726 299.672 265.404 299.498 265.131C299.324 264.858 299.091 264.648 298.799 264.501C298.507 264.353 298.183 264.279 297.827 264.279C297.517 264.279 297.218 264.343 296.93 264.472C296.642 264.601 296.401 264.804 296.208 265.08C296.015 265.357 295.903 265.718 295.873 266.165H294.441C294.471 265.521 294.638 264.97 294.941 264.512C295.248 264.054 295.651 263.703 296.151 263.461C296.655 263.218 297.214 263.097 297.827 263.097C298.494 263.097 299.074 263.23 299.566 263.495C300.062 263.76 300.445 264.124 300.714 264.586C300.987 265.048 301.123 265.574 301.123 266.165C301.123 266.582 301.058 266.959 300.93 267.296C300.805 267.633 300.623 267.934 300.384 268.199C300.149 268.465 299.865 268.699 299.532 268.904C299.199 269.112 298.932 269.332 298.731 269.563C298.53 269.79 298.384 270.061 298.293 270.376C298.202 270.69 298.153 271.082 298.146 271.552V271.62H296.782ZM297.509 274.983C297.229 274.983 296.988 274.883 296.788 274.682C296.587 274.482 296.487 274.241 296.487 273.961C296.487 273.68 296.587 273.44 296.788 273.239C296.988 273.038 297.229 272.938 297.509 272.938C297.79 272.938 298.03 273.038 298.231 273.239C298.432 273.44 298.532 273.68 298.532 273.961C298.532 274.146 298.485 274.317 298.39 274.472C298.299 274.627 298.176 274.752 298.021 274.847C297.869 274.938 297.699 274.983 297.509 274.983Z" fill="white"/>
<mask id="mask0_971_3451" style="mask-type:alpha" maskUnits="userSpaceOnUse" x="357" y="247" width="37" height="43">
<rect x="357" y="247.5" width="36.7312" height="42.0392" fill="#D9D9D9"/>
</mask>
<g mask="url(#mask0_971_3451)">
<path d="M361.592 282.532V254.506L390.671 268.519L361.592 282.532ZM364.653 277.277L382.789 268.519L364.653 259.761V265.891L373.836 268.519L364.653 271.146V277.277Z" fill="white"/>
</g>
</g>
<defs>
<linearGradient id="paint0_linear_971_3451" x1="59.4104" y1="72.9502" x2="384.289" y2="72.9502" gradientUnits="userSpaceOnUse">
<stop stop-color="#A2FFE0"/>
<stop offset="1" stop-color="#2C9DC0"/>
</linearGradient>
<clipPath id="clip0_971_3451">
<rect width="308" height="209" fill="white" transform="translate(60 0.5)"/>
</clipPath>
<clipPath id="clip1_971_3451">
<rect width="427" height="67" fill="white" transform="translate(0 234.5)"/>
</clipPath>
</defs>
</svg>
