<svg width="120" height="120" viewBox="0 0 120 120" fill="none" xmlns="http://www.w3.org/2000/svg">
<path d="M60 120C93.1371 120 120 93.1371 120 60C120 26.8629 93.1371 0 60 0C26.8629 0 0 26.8629 0 60C0 93.1371 26.8629 120 60 120Z" fill="url(#paint0_linear_1143_3957)"/>
<path d="M61.9033 35.4743C58.5842 32.87 54.7033 31.3892 50.5671 31.3892C38.2097 31.3892 28.2012 44.6913 28.2012 61.1083C28.2012 77.5253 38.2097 90.8275 50.5671 90.8275C54.3203 90.8275 57.8437 89.6019 60.9331 87.4317C52.8395 82.5551 47.3246 72.8785 47.3246 61.7211C47.3246 50.5636 53.2735 40.1466 61.8778 35.4743H61.9033Z" fill="#101018"/>
<path d="M85.6218 42.2955H102.218C95.0941 26.9764 79.5707 16.3296 61.5452 16.3296C61.2643 16.3296 60.9835 16.3296 60.7281 16.3296C60.5239 16.3807 60.2941 16.4062 60.0898 16.4572C71.5281 20.619 80.8218 30.1168 85.6218 42.27V42.2955Z" fill="#101018"/>
<path d="M106.388 61.212C106.388 60.6503 106.388 60.0886 106.337 59.5269H69.6216V75.1524H87.2897C83.2301 89.7311 72.9918 101.297 59.9961 105.995C60.5067 105.995 61.0174 106.046 61.528 106.046C86.294 106.046 106.362 85.9779 106.362 61.212H106.388Z" fill="#101018"/>
<defs>
<linearGradient id="paint0_linear_1143_3957" x1="-3.86139" y1="41.5385" x2="127.129" y2="41.5385" gradientUnits="userSpaceOnUse">
<stop stop-color="#72D7D3"/>
<stop offset="1" stop-color="#2C9DC0"/>
</linearGradient>
</defs>
</svg>
