<svg width="40" height="40" viewBox="0 0 40 40" fill="none" xmlns="http://www.w3.org/2000/svg">
<circle cx="20" cy="20" r="20" fill="#A2FFE0"/>
<mask id="mask0_523_2680" style="mask-type:alpha" maskUnits="userSpaceOnUse" x="8" y="8" width="24" height="24">
<rect x="8" y="8" width="24" height="24" fill="#D9D9D9"/>
</mask>
<g mask="url(#mask0_523_2680)">
<path d="M20 29C18.9333 29 17.9792 28.725 17.1375 28.175C16.2958 27.625 15.6083 26.9 15.075 26L12.7 27.35L11.7 25.625L14.275 24.125C14.225 23.9417 14.1833 23.7542 14.15 23.5625C14.1167 23.3708 14.0833 23.1833 14.05 23H11V21H14.05C14.0833 20.8 14.1167 20.6042 14.15 20.4125C14.1833 20.2208 14.225 20.0333 14.275 19.85L11.7 18.35L12.7 16.625L15.05 18C15.1833 17.7667 15.3375 17.5375 15.5125 17.3125C15.6875 17.0875 15.8667 16.8833 16.05 16.7C16.0167 16.5833 16 16.4667 16 16.35V16C16 15.6 16.0583 15.2167 16.175 14.85C16.2917 14.4833 16.45 14.1417 16.65 13.825L15 12.175L16.4 10.75L18.15 12.45C18.4333 12.3 18.7292 12.1875 19.0375 12.1125C19.3458 12.0375 19.6667 12 20 12C20.3333 12 20.6583 12.0417 20.975 12.125C21.2917 12.2083 21.5917 12.325 21.875 12.475L23.6 10.75L25 12.175L23.35 13.825C23.55 14.1417 23.7042 14.4833 23.8125 14.85C23.9208 15.2167 23.975 15.6 23.975 16V16.3375C23.975 16.4458 23.9583 16.5583 23.925 16.675C24.1083 16.8583 24.2875 17.0667 24.4625 17.3C24.6375 17.5333 24.7917 17.7667 24.925 18L27.3 16.65L28.3 18.375L25.7 19.85C25.75 20.0333 25.7958 20.2208 25.8375 20.4125C25.8792 20.6042 25.9167 20.8 25.95 21H29V23H25.95C25.9167 23.2 25.8833 23.3958 25.85 23.5875C25.8167 23.7792 25.775 23.9667 25.725 24.15L28.3 25.65L27.3 27.375L24.925 26C24.3917 26.9 23.7042 27.625 22.8625 28.175C22.0208 28.725 21.0667 29 20 29ZM18.1 15.35C18.3833 15.2333 18.6875 15.1458 19.0125 15.0875C19.3375 15.0292 19.6667 15 20 15C20.3333 15 20.6542 15.025 20.9625 15.075C21.2708 15.125 21.5667 15.2083 21.85 15.325C21.7167 14.9417 21.4833 14.625 21.15 14.375C20.8167 14.125 20.4333 14 20 14C19.5667 14 19.175 14.1292 18.825 14.3875C18.475 14.6458 18.2333 14.9667 18.1 15.35ZM20 27C21.2167 27 22.1875 26.4917 22.9125 25.475C23.6375 24.4583 24 23.3 24 22C24 20.8333 23.6625 19.7083 22.9875 18.625C22.3125 17.5417 21.3167 17 20 17C18.7 17 17.7083 17.5375 17.025 18.6125C16.3417 19.6875 16 20.8167 16 22C16 23.3 16.3625 24.4583 17.0875 25.475C17.8125 26.4917 18.7833 27 20 27ZM19 25V19H21V25H19Z" fill="#101018"/>
</g>
</svg>
