<svg width="48" height="49" viewBox="0 0 48 49" fill="none" xmlns="http://www.w3.org/2000/svg">
<path d="M44 18.5H4M28 35.5L33 30.5L28 25.5M20 25.5L15 30.5L20 35.5M4 16.1L4 32.9C4 36.2603 4 37.9405 4.65396 39.2239C5.2292 40.3529 6.14708 41.2708 7.27606 41.846C8.55953 42.5 10.2397 42.5 13.6 42.5H34.4C37.7603 42.5 39.4405 42.5 40.7239 41.846C41.8529 41.2708 42.7708 40.3529 43.346 39.2239C44 37.9405 44 36.2603 44 32.9V16.1C44 12.7397 44 11.0595 43.346 9.77606C42.7708 8.64709 41.8529 7.7292 40.7239 7.15396C39.4405 6.5 37.7603 6.5 34.4 6.5L13.6 6.5C10.2397 6.5 8.55953 6.5 7.27606 7.15396C6.14709 7.7292 5.2292 8.64708 4.65396 9.77606C4 11.0595 4 12.7397 4 16.1Z" stroke="white" stroke-width="2" stroke-linecap="round" stroke-linejoin="round"/>
</svg>
