<svg width="48" height="49" viewBox="0 0 48 49" fill="none" xmlns="http://www.w3.org/2000/svg">
<path d="M26 10.5C26 12.7091 21.0751 14.5 15 14.5C8.92487 14.5 4 12.7091 4 10.5M26 10.5C26 8.29086 21.0751 6.5 15 6.5C8.92487 6.5 4 8.29086 4 10.5M26 10.5V19.4143C23.557 20.148 22 21.2579 22 22.5M4 10.5V34.5C4 36.7091 8.92487 38.5 15 38.5C17.6593 38.5 20.0981 38.1569 22 37.5857V22.5M4 18.5C4 20.7091 8.92487 22.5 15 22.5C17.6593 22.5 20.0981 22.1569 22 21.5857M4 26.5C4 28.7091 8.92487 30.5 15 30.5C17.6593 30.5 20.0981 30.1569 22 29.5857M44 22.5C44 24.7091 39.0751 26.5 33 26.5C26.9249 26.5 22 24.7091 22 22.5M44 22.5C44 20.2909 39.0751 18.5 33 18.5C26.9249 18.5 22 20.2909 22 22.5M44 22.5V38.5C44 40.7091 39.0751 42.5 33 42.5C26.9249 42.5 22 40.7091 22 38.5V22.5M44 30.5C44 32.7091 39.0751 34.5 33 34.5C26.9249 34.5 22 32.7091 22 30.5" stroke="white" stroke-width="2" stroke-linecap="round" stroke-linejoin="round"/>
</svg>
