<svg width="40" height="40" viewBox="0 0 40 40" fill="none" xmlns="http://www.w3.org/2000/svg">
<circle cx="20" cy="20" r="20" fill="#A2FFE0"/>
<path d="M30 17H10M22 25.5L24.5 23L22 20.5M18 20.5L15.5 23L18 25.5M10 15.8L10 24.2C10 25.8802 10 26.7202 10.327 27.362C10.6146 27.9265 11.0735 28.3854 11.638 28.673C12.2798 29 13.1198 29 14.8 29H25.2C26.8802 29 27.7202 29 28.362 28.673C28.9265 28.3854 29.3854 27.9265 29.673 27.362C30 26.7202 30 25.8802 30 24.2V15.8C30 14.1198 30 13.2798 29.673 12.638C29.3854 12.0735 28.9265 11.6146 28.362 11.327C27.7202 11 26.8802 11 25.2 11L14.8 11C13.1198 11 12.2798 11 11.638 11.327C11.0735 11.6146 10.6146 12.0735 10.327 12.638C10 13.2798 10 14.1198 10 15.8Z" stroke="#101018" stroke-width="2" stroke-linecap="round" stroke-linejoin="round"/>
</svg>
