<svg width="40" height="41" viewBox="0 0 40 41" fill="none" xmlns="http://www.w3.org/2000/svg">
<circle cx="20" cy="20.9512" r="20" fill="url(#paint0_linear_1469_4486)"/>
<mask id="mask0_1469_4486" style="mask-type:alpha" maskUnits="userSpaceOnUse" x="8" y="8" width="24" height="25">
<rect x="8" y="8.95117" width="24" height="24" fill="#D9D9D9"/>
</mask>
<g mask="url(#mask0_1469_4486)">
<path d="M20 20.9512C18.9 20.9512 17.9583 20.5595 17.175 19.7762C16.3917 18.9928 16 18.0512 16 16.9512C16 15.8512 16.3917 14.9095 17.175 14.1262C17.9583 13.3428 18.9 12.9512 20 12.9512C21.1 12.9512 22.0417 13.3428 22.825 14.1262C23.6083 14.9095 24 15.8512 24 16.9512C24 18.0512 23.6083 18.9928 22.825 19.7762C22.0417 20.5595 21.1 20.9512 20 20.9512ZM12 28.9512V26.1512C12 25.5845 12.1458 25.0637 12.4375 24.5887C12.7292 24.1137 13.1167 23.7512 13.6 23.5012C14.6333 22.9845 15.6833 22.597 16.75 22.3387C17.8167 22.0803 18.9 21.9512 20 21.9512C21.1 21.9512 22.1833 22.0803 23.25 22.3387C24.3167 22.597 25.3667 22.9845 26.4 23.5012C26.8833 23.7512 27.2708 24.1137 27.5625 24.5887C27.8542 25.0637 28 25.5845 28 26.1512V28.9512H12Z" fill="#101018"/>
<path d="M20 20.9512C18.9 20.9512 17.9583 20.5595 17.175 19.7762C16.3917 18.9928 16 18.0512 16 16.9512C16 15.8512 16.3917 14.9095 17.175 14.1262C17.9583 13.3428 18.9 12.9512 20 12.9512C21.1 12.9512 22.0417 13.3428 22.825 14.1262C23.6083 14.9095 24 15.8512 24 16.9512C24 18.0512 23.6083 18.9928 22.825 19.7762C22.0417 20.5595 21.1 20.9512 20 20.9512ZM12 28.9512V26.1512C12 25.5845 12.1458 25.0637 12.4375 24.5887C12.7292 24.1137 13.1167 23.7512 13.6 23.5012C14.6333 22.9845 15.6833 22.597 16.75 22.3387C17.8167 22.0803 18.9 21.9512 20 21.9512C21.1 21.9512 22.1833 22.0803 23.25 22.3387C24.3167 22.597 25.3667 22.9845 26.4 23.5012C26.8833 23.7512 27.2708 24.1137 27.5625 24.5887C27.8542 25.0637 28 25.5845 28 26.1512V28.9512H12Z" fill="#A688FF" fill-opacity="0.05"/>
<path d="M20 20.9512C18.9 20.9512 17.9583 20.5595 17.175 19.7762C16.3917 18.9928 16 18.0512 16 16.9512C16 15.8512 16.3917 14.9095 17.175 14.1262C17.9583 13.3428 18.9 12.9512 20 12.9512C21.1 12.9512 22.0417 13.3428 22.825 14.1262C23.6083 14.9095 24 15.8512 24 16.9512C24 18.0512 23.6083 18.9928 22.825 19.7762C22.0417 20.5595 21.1 20.9512 20 20.9512ZM12 28.9512V26.1512C12 25.5845 12.1458 25.0637 12.4375 24.5887C12.7292 24.1137 13.1167 23.7512 13.6 23.5012C14.6333 22.9845 15.6833 22.597 16.75 22.3387C17.8167 22.0803 18.9 21.9512 20 21.9512C21.1 21.9512 22.1833 22.0803 23.25 22.3387C24.3167 22.597 25.3667 22.9845 26.4 23.5012C26.8833 23.7512 27.2708 24.1137 27.5625 24.5887C27.8542 25.0637 28 25.5845 28 26.1512V28.9512H12Z" fill="#5ED9FF" fill-opacity="0.02"/>
</g>
<defs>
<linearGradient id="paint0_linear_1469_4486" x1="-1.28713" y1="14.7973" x2="42.3762" y2="14.7973" gradientUnits="userSpaceOnUse">
<stop stop-color="#72D7D3"/>
<stop offset="1" stop-color="#2C9DC0"/>
</linearGradient>
</defs>
</svg>
